# xmcd
#
# Track frame offsets:
#        150
#        75895
#        88985
#        99355
#        117643
#
# Disc length: 3558 seconds
#
# Revision: 0
# Processed by: cddbd v1.5.1PL2 Copyright (c) Steve Scherf et al.
# Submitted via: ExactAudioCopy v0.95b4
#
DISCID=330de405
DTITLE=Brokeback - Morse Code In The Modern Age: Across The Americas
DYEAR=2000
DGENRE=
TTITLE0=Lives Of The Rhythm Experts
TTITLE1=Divines Water
TTITLE2=Running Scared
TTITLE3=A Carrot Is As Close As A Rabbit Gets To A Diamond
TTITLE4=data
EXTD=
EXTT0=
EXTT1=
EXTT2=
EXTT3=
EXTT4=
PLAYORDER=
